<?xml version="1.0" encoding="UTF-8"?>
<svg xmlns="http://www.w3.org/2000/svg">
   <g transform="translate(70, 620)">
      <line x1="20"
            x2="20"
            y1="0"
            y2="-602"
            stroke="black"
            stroke-width="1"/>
      <line x1="20"
            x2="910"
            y1="0"
            y2="0"
            stroke="black"
            stroke-width="1"/>
      <text x="5" y="0" text-anchor="middle">0</text>
      <text x="5" y="-70" text-anchor="middle">10</text>
      <text x="5" y="-140" text-anchor="middle">20</text>
      <text x="5" y="-210" text-anchor="middle">30</text>
      <text x="5" y="-280" text-anchor="middle">40</text>
      <text x="5" y="-350" text-anchor="middle">50</text>
      <text x="5" y="-420" text-anchor="middle">60</text>
      <text x="5" y="-490" text-anchor="middle">70</text>
      <text x="5" y="-560" text-anchor="middle">80</text>
      <path stroke="lightgreen"
            stroke-width="2"
            stroke-dasharray="10,10"
            d="M20 -70 H910"/>
      <path stroke="lightgreen"
            stroke-width="2"
            stroke-dasharray="10,10"
            d="M20 -140 H910"/>
      <g transform="translate(1000,-300)" style="text-anchor:left;">
         <text x="-50" y="0">Alice</text>
         <path stroke="red" stroke-width="2" d="M0 -5 H40"/>
         <text x="-50" y="20">Others</text>
         <path stroke="blue" stroke-width="2" d="M0 15 H40"/>
      </g>
      <line x1="70"
            y1="-175"
            x2="140"
            y2="-224"
            stroke="red"
            stroke-width="2"/>
      <line x1="70"
            y1="-91"
            x2="140"
            y2="-336"
            stroke="blue"
            stroke-width="2"/>
      <circle cx="70" cy="-175" r="5" fill="red"/>
      <circle cx="70" cy="-91" r="5" fill="blue"/>
      <text x="70" y="30" style="text-anchor:middle;">Ch. 1</text>
      <line x1="140"
            y1="-224"
            x2="210"
            y2="-322"
            stroke="red"
            stroke-width="2"/>
      <line x1="140"
            y1="-336"
            x2="210"
            y2="-294"
            stroke="blue"
            stroke-width="2"/>
      <circle cx="140" cy="-224" r="5" fill="red"/>
      <circle cx="140" cy="-336" r="5" fill="blue"/>
      <text x="140" y="30" style="text-anchor:middle;">Ch. 2</text>
      <line x1="210"
            y1="-322"
            x2="280"
            y2="-259"
            stroke="red"
            stroke-width="2"/>
      <line x1="210"
            y1="-294"
            x2="280"
            y2="-364"
            stroke="blue"
            stroke-width="2"/>
      <circle cx="210" cy="-322" r="5" fill="red"/>
      <circle cx="210" cy="-294" r="5" fill="blue"/>
      <text x="210" y="30" style="text-anchor:middle;">Ch. 3</text>
      <line x1="280"
            y1="-259"
            x2="350"
            y2="-364"
            stroke="red"
            stroke-width="2"/>
      <line x1="280"
            y1="-364"
            x2="350"
            y2="-301"
            stroke="blue"
            stroke-width="2"/>
      <circle cx="280" cy="-259" r="5" fill="red"/>
      <circle cx="280" cy="-364" r="5" fill="blue"/>
      <text x="280" y="30" style="text-anchor:middle;">Ch. 4</text>
      <line x1="350"
            y1="-364"
            x2="420"
            y2="-427"
            stroke="red"
            stroke-width="2"/>
      <line x1="350"
            y1="-301"
            x2="420"
            y2="-413"
            stroke="blue"
            stroke-width="2"/>
      <circle cx="350" cy="-364" r="5" fill="red"/>
      <circle cx="350" cy="-301" r="5" fill="blue"/>
      <text x="350" y="30" style="text-anchor:middle;">Ch. 5</text>
      <line x1="420"
            y1="-427"
            x2="490"
            y2="-147"
            stroke="red"
            stroke-width="2"/>
      <line x1="420"
            y1="-413"
            x2="490"
            y2="-427"
            stroke="blue"
            stroke-width="2"/>
      <circle cx="420" cy="-427" r="5" fill="red"/>
      <circle cx="420" cy="-413" r="5" fill="blue"/>
      <text x="420" y="30" style="text-anchor:middle;">Ch. 6</text>
      <line x1="490"
            y1="-147"
            x2="560"
            y2="-280"
            stroke="red"
            stroke-width="2"/>
      <line x1="490"
            y1="-427"
            x2="560"
            y2="-392"
            stroke="blue"
            stroke-width="2"/>
      <circle cx="490" cy="-147" r="5" fill="red"/>
      <circle cx="490" cy="-427" r="5" fill="blue"/>
      <text x="490" y="30" style="text-anchor:middle;">Ch. 7</text>
      <line x1="560"
            y1="-280"
            x2="630"
            y2="-399"
            stroke="red"
            stroke-width="2"/>
      <line x1="560"
            y1="-392"
            x2="630"
            y2="-532"
            stroke="blue"
            stroke-width="2"/>
      <circle cx="560" cy="-280" r="5" fill="red"/>
      <circle cx="560" cy="-392" r="5" fill="blue"/>
      <text x="560" y="30" style="text-anchor:middle;">Ch. 8</text>
      <line x1="630"
            y1="-399"
            x2="700"
            y2="0"
            stroke="red"
            stroke-width="2"/>
      <line x1="630"
            y1="-532"
            x2="700"
            y2="0"
            stroke="blue"
            stroke-width="2"/>
      <circle cx="630" cy="-399" r="5" fill="red"/>
      <circle cx="630" cy="-532" r="5" fill="blue"/>
      <text x="630" y="30" style="text-anchor:middle;">Ch. 9</text>
      <line x1="700"
            y1="0"
            x2="770"
            y2="0"
            stroke="red"
            stroke-width="2"/>
      <line x1="700"
            y1="0"
            x2="770"
            y2="0"
            stroke="blue"
            stroke-width="2"/>
      <circle cx="700" cy="0" r="5" fill="red"/>
      <circle cx="700" cy="0" r="5" fill="blue"/>
      <text x="700" y="30" style="text-anchor:middle;">Ch. 10</text>
      <line x1="770"
            y1="0"
            x2="840"
            y2="-63"
            stroke="red"
            stroke-width="2"/>
      <line x1="770"
            y1="0"
            x2="840"
            y2="0"
            stroke="blue"
            stroke-width="2"/>
      <circle cx="770" cy="0" r="5" fill="red"/>
      <circle cx="770" cy="0" r="5" fill="blue"/>
      <text x="770" y="30" style="text-anchor:middle;">Ch. 11</text>
      <circle cx="840" cy="-63" r="5" fill="red"/>
      <circle cx="840" cy="0" r="5" fill="blue"/>
      <text x="840" y="30" style="text-anchor:middle;">Ch. 12</text>
   </g>
</svg>
